<?xml version="1.0" encoding="UTF-8" standalone="no"?>
<!-- Created with Inkscape (http://www.inkscape.org/) -->

<svg
   xmlns:a="http://ns.adobe.com/AdobeSVGViewerExtensions/3.0/"
   xmlns:dc="http://purl.org/dc/elements/1.1/"
   xmlns:cc="http://creativecommons.org/ns#"
   xmlns:rdf="http://www.w3.org/1999/02/22-rdf-syntax-ns#"
   xmlns:svg="http://www.w3.org/2000/svg"
   xmlns="http://www.w3.org/2000/svg"
   xmlns:sodipodi="http://sodipodi.sourceforge.net/DTD/sodipodi-0.dtd"
   xmlns:inkscape="http://www.inkscape.org/namespaces/inkscape"
   id="svg2"
   version="1.1"
   inkscape:version="0.48.4 r9939"
   width="40"
   height="40"
   sodipodi:docname="andere_marker-icon.svg"
   inkscape:export-filename="/mnt/opData/WDir/GitHub/WebBeispiele_Shed01/BurSchl_OOE/graphics/andere_marker.png"
   inkscape:export-xdpi="180"
   inkscape:export-ydpi="180">
  <metadata
     id="metadata8">
    <rdf:RDF>
      <cc:Work
         rdf:about="">
        <dc:format>image/svg+xml</dc:format>
        <dc:type
           rdf:resource="http://purl.org/dc/dcmitype/StillImage" />
        <dc:title />
      </cc:Work>
    </rdf:RDF>
  </metadata>
  <defs
     id="defs6">
    <inkscape:perspective
       sodipodi:type="inkscape:persp3d"
       inkscape:vp_x="0 : 30 : 1"
       inkscape:vp_y="0 : 1000 : 0"
       inkscape:vp_z="40 : 30 : 1"
       inkscape:persp3d-origin="20 : 20 : 1"
       id="perspective2982" />
    <linearGradient
       id="SVGID_2_"
       gradientUnits="userSpaceOnUse"
       x1="108.6689"
       y1="271.94629"
       x2="108.6689"
       y2="306.69241"
       gradientTransform="translate(-99.418441,-260.80735)">
      <stop
         offset="0"
         style="stop-color:#429AB7"
         id="stop115" />
      <stop
         offset="1"
         style="stop-color:#426FB7"
         id="stop117" />
      <a:midPointStop
         offset="0"
         style="stop-color:#429AB7" />
      <a:midPointStop
         offset="0.5"
         style="stop-color:#429AB7" />
      <a:midPointStop
         offset="1"
         style="stop-color:#426FB7" />
    </linearGradient>
    <filter
       inkscape:collect="always"
       id="filter3766">
      <feGaussianBlur
         inkscape:collect="always"
         stdDeviation="0.21255663"
         id="feGaussianBlur3768" />
    </filter>
  </defs>
  <sodipodi:namedview
     pagecolor="#ffffff"
     bordercolor="#666666"
     borderopacity="1"
     objecttolerance="10"
     gridtolerance="10"
     guidetolerance="10"
     inkscape:pageopacity="0"
     inkscape:pageshadow="2"
     inkscape:window-width="1858"
     inkscape:window-height="999"
     id="namedview4"
     showgrid="true"
     inkscape:zoom="16.280702"
     inkscape:cx="-3.4856735"
     inkscape:cy="15.456803"
     inkscape:window-x="-8"
     inkscape:window-y="46"
     inkscape:window-maximized="1"
     inkscape:current-layer="g3821">
    <inkscape:grid
       type="xygrid"
       id="grid3774"
       empspacing="5"
       visible="true"
       enabled="true"
       snapvisiblegridlinesonly="true" />
  </sodipodi:namedview>
  <g
     transform="translate(-99.418441,-280.80735)"
     id="g112">
    <linearGradient
       id="linearGradient3177"
       gradientUnits="userSpaceOnUse"
       x1="108.6689"
       y1="271.94629"
       x2="108.6689"
       y2="306.69241">
      <stop
         offset="0"
         style="stop-color:#429AB7"
         id="stop3179" />
      <stop
         offset="1"
         style="stop-color:#426FB7"
         id="stop3181" />
      <a:midPointStop
         offset="0"
         style="stop-color:#429AB7" />
      <a:midPointStop
         offset="0.5"
         style="stop-color:#429AB7" />
      <a:midPointStop
         offset="1"
         style="stop-color:#426FB7" />
    </linearGradient>
    <path
       style="opacity:0.3;fill:#ffffff"
       inkscape:connector-curvature="0"
       d="m 108.668,271.946 c -5.957,0 -10.787,4.729 -10.787,10.557 0,0.148 0.011,0.293 0.017,0.439 2.068,-0.873 4.263,-1.508 6.552,-1.857 0.797,-1.52 2.386,-2.557 4.22,-2.557 1.833,0 3.423,1.037 4.22,2.557 2.288,0.35 4.482,0.984 6.551,1.857 0.006,-0.146 0.017,-0.291 0.017,-0.439 -0.001,-5.828 -4.832,-10.557 -10.79,-10.557 z"
       id="path121" />
  </g>
  <g
     transform="matrix(1.6686753,0,0,1.6117891,-161.33494,-311.50357)"
     id="g35">
    <g
       id="g3821"
       transform="matrix(1.0555555,0,0,1.0357143,-6.0372193,-7.1239268)">
      <path
         style="opacity:0.3;fill:none;stroke:#1e1e1e;stroke-width:0.58317572;stroke-miterlimit:4;stroke-opacity:1;stroke-dasharray:none;filter:url(#filter3766)"
         d="m 108.67,194.07869 c -5.4709,0 -9.905947,4.67952 -9.905947,10.45202 0,4.24845 2.408307,7.31505 5.857847,8.64303 l 4.0481,2.47018 4.0481,-2.47018 c 3.44954,-1.32798 5.85785,-4.39458 5.85785,-8.64303 0,-5.7725 -4.43505,-10.45202 -9.90595,-10.45202 z"
         id="path3791"
         inkscape:connector-curvature="0"
         sodipodi:nodetypes="sscccss" />
      <path
         inkscape:connector-curvature="0"
         id="path3789"
         d="m 108.67,194.07869 c -5.4709,0 -9.905947,4.67952 -9.905947,10.45202 0,4.24845 2.408307,7.31505 5.857847,8.64303 l 4.0481,3.66825 4.0481,-3.66825 c 3.44954,-1.32798 5.85785,-4.39458 5.85785,-8.64303 0,-5.7725 -4.43505,-10.45202 -9.90595,-10.45202 z"
         style="fill:#1d0a55;fill-opacity:1;stroke:none" />
      <path
         style="fill:#eeeeec;fill-opacity:1;stroke:none"
         d="m 103.23847,197.83685 0,1.99751 -1.38131,1.75025 0,2.49851 c 0.0202,1.43354 0.01,2.92018 0.01,4.37239 l 5.03193,0 -4.19328,0 0,-1.24926 c 0,-0.34497 0.26505,-0.62462 0.59199,-0.62462 0.32695,0 0.592,0.27965 0.592,0.62462 l 0,1.24926 6.56124,0 5.03193,0 0,-4.37239 -10.66572,0 0,-2.49851 -1.38131,-1.75025 0,-0.74826 0.78932,0 0,0.62463 0.88799,0 0,0.62463 0.88798,0 0,-1.24926 -0.88798,0 0,-0.62462 -0.88799,0 0,-0.62463 -0.78932,0 -0.0987,0 z m -0.78932,4.06008 0.59199,0 0,1.24925 -0.59199,0 z m 1.18398,0 0.592,0 0,1.24925 -0.592,0 z m 2.57517,2.91492 1.18399,0 0,1.04105 -1.18399,0 z m 2.07197,0 1.18399,0 0,1.04105 -1.18399,0 z m 2.17064,0 1.18399,0 0,1.04105 -1.18399,0 z m 2.07198,0 1.18398,0 0,1.04105 -1.18398,0 z"
         id="rect3007"
         inkscape:connector-curvature="0"
         sodipodi:nodetypes="cccccccsssccccccccccccccccccccccccccccccccccccccccccccccccccc" />
    </g>
  </g>
</svg>
