<?xml version="1.0" encoding="UTF-8" standalone="no"?>
<!-- Created with Inkscape (http://www.inkscape.org/) -->

<svg
   xmlns:a="http://ns.adobe.com/AdobeSVGViewerExtensions/3.0/"
   xmlns:dc="http://purl.org/dc/elements/1.1/"
   xmlns:cc="http://creativecommons.org/ns#"
   xmlns:rdf="http://www.w3.org/1999/02/22-rdf-syntax-ns#"
   xmlns:svg="http://www.w3.org/2000/svg"
   xmlns="http://www.w3.org/2000/svg"
   xmlns:sodipodi="http://sodipodi.sourceforge.net/DTD/sodipodi-0.dtd"
   xmlns:inkscape="http://www.inkscape.org/namespaces/inkscape"
   id="svg2"
   version="1.1"
   inkscape:version="0.48.4 r9939"
   width="40"
   height="45"
   sodipodi:docname="andere_marker-icon.svg"
   inkscape:export-filename="/mnt/opData/WDir/GitHub/WebBeispiele_Shed01/BurSchl_OOE/graphics/andere_marker.png"
   inkscape:export-xdpi="180"
   inkscape:export-ydpi="180">
  <metadata
     id="metadata8">
    <rdf:RDF>
      <cc:Work
         rdf:about="">
        <dc:format>image/svg+xml</dc:format>
        <dc:type
           rdf:resource="http://purl.org/dc/dcmitype/StillImage" />
        <dc:title />
      </cc:Work>
    </rdf:RDF>
  </metadata>
  <defs
     id="defs6">
    <inkscape:perspective
       sodipodi:type="inkscape:persp3d"
       inkscape:vp_x="0 : 30 : 1"
       inkscape:vp_y="0 : 1000 : 0"
       inkscape:vp_z="40 : 30 : 1"
       inkscape:persp3d-origin="20 : 20 : 1"
       id="perspective2982" />
    <linearGradient
       id="SVGID_2_"
       gradientUnits="userSpaceOnUse"
       x1="108.6689"
       y1="271.94629"
       x2="108.6689"
       y2="306.69241"
       gradientTransform="translate(-99.418441,-260.80735)">
      <stop
         offset="0"
         style="stop-color:#429AB7"
         id="stop115" />
      <stop
         offset="1"
         style="stop-color:#426FB7"
         id="stop117" />
      <a:midPointStop
         offset="0"
         style="stop-color:#429AB7" />
      <a:midPointStop
         offset="0.5"
         style="stop-color:#429AB7" />
      <a:midPointStop
         offset="1"
         style="stop-color:#426FB7" />
    </linearGradient>
    <filter
       inkscape:collect="always"
       id="filter3802">
      <feGaussianBlur
         inkscape:collect="always"
         stdDeviation="0.2043595"
         id="feGaussianBlur3804" />
    </filter>
  </defs>
  <sodipodi:namedview
     pagecolor="#ffffff"
     bordercolor="#666666"
     borderopacity="1"
     objecttolerance="10"
     gridtolerance="10"
     guidetolerance="10"
     inkscape:pageopacity="0"
     inkscape:pageshadow="2"
     inkscape:window-width="1858"
     inkscape:window-height="999"
     id="namedview4"
     showgrid="true"
     inkscape:zoom="16.280702"
     inkscape:cx="5.4205764"
     inkscape:cy="24.987327"
     inkscape:window-x="-8"
     inkscape:window-y="46"
     inkscape:window-maximized="1"
     inkscape:current-layer="g3821">
    <inkscape:grid
       type="xygrid"
       id="grid3774"
       empspacing="5"
       visible="true"
       enabled="true"
       snapvisiblegridlinesonly="true" />
  </sodipodi:namedview>
  <g
     transform="translate(-99.418441,-275.80735)"
     id="g112">
    <linearGradient
       id="linearGradient3177"
       gradientUnits="userSpaceOnUse"
       x1="108.6689"
       y1="271.94629"
       x2="108.6689"
       y2="306.69241">
      <stop
         offset="0"
         style="stop-color:#429AB7"
         id="stop3179" />
      <stop
         offset="1"
         style="stop-color:#426FB7"
         id="stop3181" />
      <a:midPointStop
         offset="0"
         style="stop-color:#429AB7" />
      <a:midPointStop
         offset="0.5"
         style="stop-color:#429AB7" />
      <a:midPointStop
         offset="1"
         style="stop-color:#426FB7" />
    </linearGradient>
    <path
       style="opacity:0.3;fill:#ffffff"
       inkscape:connector-curvature="0"
       d="m 108.668,271.946 c -5.957,0 -10.787,4.729 -10.787,10.557 0,0.148 0.011,0.293 0.017,0.439 2.068,-0.873 4.263,-1.508 6.552,-1.857 0.797,-1.52 2.386,-2.557 4.22,-2.557 1.833,0 3.423,1.037 4.22,2.557 2.288,0.35 4.482,0.984 6.551,1.857 0.006,-0.146 0.017,-0.291 0.017,-0.439 -0.001,-5.828 -4.832,-10.557 -10.79,-10.557 z"
       id="path121" />
  </g>
  <g
     transform="matrix(1.6686753,0,0,1.6117891,-161.33494,-306.50357)"
     id="g35">
    <g
       id="g3821"
       transform="matrix(1.0555555,0,0,1.0357143,-6.0372193,-7.1239268)">
      <path
         style="opacity:0.2;fill:none;stroke:#323232;stroke-width:8.64498138000000083;stroke-miterlimit:4;stroke-opacity:1;stroke-dasharray:none;filter:url(#filter3802)"
         d="m 108.67,194.07869 c -5.4709,0 -7.51211,4.67952 -7.51211,10.45202 0,4.24845 2.40831,4.76648 5.85785,6.09446 l 1.65426,1.19589 1.65426,-1.19589 c 3.44954,-1.32798 5.85785,-1.84601 5.85785,-6.09446 0,-5.7725 -2.04121,-10.45202 -7.51211,-10.45202 z"
         id="path3791"
         inkscape:connector-curvature="0"
         sodipodi:nodetypes="sscccss"
         transform="matrix(0.94866358,0,0,0.9401879,5.5788084,13.269292)" />
      <path
         inkscape:connector-curvature="0"
         id="path3789"
         d="m 108.67008,195.73972 c -5.19004,0 -9.397411,4.39963 -9.397411,9.82687 0,3.99434 2.284671,6.87751 5.557131,8.12607 l 3.84028,3.44885 3.84029,-3.44885 c 3.27245,-1.24856 5.55712,-4.13173 5.55712,-8.12607 0,-5.42724 -4.20737,-9.82687 -9.39741,-9.82687 z"
         style="fill:#1d0a55;fill-opacity:1;stroke:none" />
      <path
         style="fill:#eeeeec;fill-opacity:1;stroke:none"
         d="m 103.51739,199.2731 0,1.87804 -1.3104,1.64556 0,2.34907 c 0.0192,1.34779 0.009,2.74552 0.009,4.11086 l 4.77361,0 -3.97801,0 0,-1.17454 c 0,-0.32433 0.25144,-0.58725 0.5616,-0.58725 0.31017,0 0.56161,0.26292 0.56161,0.58725 l 0,1.17454 6.22441,0 4.77361,0 0,-4.11086 -10.11818,0 0,-2.34907 -1.3104,-1.64556 0,-0.70351 0.7488,0 0,0.58727 0.8424,0 0,0.58727 0.8424,0 0,-1.17454 -0.8424,0 0,-0.58726 -0.8424,0 0,-0.58727 -0.7488,0 -0.0936,0 z m -0.7488,3.81724 0.5616,0 0,1.17453 -0.5616,0 z m 1.12319,0 0.56161,0 0,1.17453 -0.56161,0 z m 2.44297,2.74057 1.12321,0 0,0.97879 -1.12321,0 z m 1.96561,0 1.12321,0 0,0.97879 -1.12321,0 z m 2.0592,0 1.12321,0 0,0.97879 -1.12321,0 z m 1.96562,0 1.1232,0 0,0.97879 -1.1232,0 z"
         id="rect3007"
         inkscape:connector-curvature="0"
         sodipodi:nodetypes="cccccccsssccccccccccccccccccccccccccccccccccccccccccccccccccc" />
    </g>
  </g>
</svg>
