<?xml version="1.0" encoding="UTF-8" standalone="no"?>
<!-- Created with Inkscape (http://www.inkscape.org/) -->

<svg
   xmlns:dc="http://purl.org/dc/elements/1.1/"
   xmlns:cc="http://creativecommons.org/ns#"
   xmlns:rdf="http://www.w3.org/1999/02/22-rdf-syntax-ns#"
   xmlns:svg="http://www.w3.org/2000/svg"
   xmlns="http://www.w3.org/2000/svg"
   xmlns:sodipodi="http://sodipodi.sourceforge.net/DTD/sodipodi-0.dtd"
   xmlns:inkscape="http://www.inkscape.org/namespaces/inkscape"
   width="138"
   height="102"
   id="svg2"
   version="1.1"
   inkscape:version="0.48.4 r9939"
   sodipodi:docname="andere_sketch.svg">
  <defs
     id="defs4" />
  <sodipodi:namedview
     id="base"
     pagecolor="#ffffff"
     bordercolor="#666666"
     borderopacity="1.0"
     inkscape:pageopacity="0.0"
     inkscape:pageshadow="2"
     inkscape:zoom="5.6"
     inkscape:cx="35.101955"
     inkscape:cy="43.537028"
     inkscape:document-units="px"
     inkscape:current-layer="layer1"
     showgrid="true"
     width="128px"
     inkscape:window-width="1858"
     inkscape:window-height="999"
     inkscape:window-x="-8"
     inkscape:window-y="46"
     inkscape:window-maximized="1"
     inkscape:snap-grids="true"
     showguides="true"
     inkscape:guide-bbox="true">
    <inkscape:grid
       type="xygrid"
       id="grid2991"
       empspacing="5"
       visible="true"
       enabled="true"
       snapvisiblegridlinesonly="true" />
  </sodipodi:namedview>
  <metadata
     id="metadata7">
    <rdf:RDF>
      <cc:Work
         rdf:about="">
        <dc:format>image/svg+xml</dc:format>
        <dc:type
           rdf:resource="http://purl.org/dc/dcmitype/StillImage" />
        <dc:title></dc:title>
      </cc:Work>
    </rdf:RDF>
  </metadata>
  <g
     inkscape:label="Ebene 1"
     inkscape:groupmode="layer"
     id="layer1"
     transform="translate(0,-950.3622)">
    <g
       id="g3827" />
    <g
       id="g3831"
       transform="translate(72,1.7382813e-5)">
      <g
         id="g3839" />
    </g>
    <path
       style="fill:#000000;fill-opacity:1;stroke:none"
       d="m 13.9,0 0,19.1875 -14,16.8125 0,24 C 0.1043169,73.770238 0,88.050444 0,102 l 51,0 -42.5,0 0,-12 c 0,-3.313708 2.686292,-6 6,-6 3.313708,0 6,2.686292 6,6 l 0,12 66.5,0 51,0 0,-42 -108.1,0 0,-24 -14,-16.8125 0,-7.1875 8,0 0,6 9,0 0,6 9,0 0,-12 -9,0 0,-6 -9,0 0,-6 -8,0 -1,0 z m -8,39 6,0 0,12 -6,0 z m 12,0 6,0 0,12 -6,0 z m 26.1,28 12,0 0,10 -12,0 z m 21,0 12,0 0,10 -12,0 z m 22,0 12,0 0,10 -12,0 z m 21,0 12,0 0,10 -12,0 z"
       transform="translate(0,950.3622)"
       id="rect3007"
       inkscape:connector-curvature="0"
       sodipodi:nodetypes="cccccccsssccccccccccccccccccccccccccccccccccccccccccccccccccc" />
  </g>
</svg>
