<?xml version="1.0" encoding="UTF-8" standalone="no"?>
<!-- Created with Inkscape (http://www.inkscape.org/) -->

<svg
   xmlns:dc="http://purl.org/dc/elements/1.1/"
   xmlns:cc="http://creativecommons.org/ns#"
   xmlns:rdf="http://www.w3.org/1999/02/22-rdf-syntax-ns#"
   xmlns:svg="http://www.w3.org/2000/svg"
   xmlns="http://www.w3.org/2000/svg"
   xmlns:sodipodi="http://sodipodi.sourceforge.net/DTD/sodipodi-0.dtd"
   xmlns:inkscape="http://www.inkscape.org/namespaces/inkscape"
   width="102"
   height="102"
   id="svg2"
   version="1.1"
   inkscape:version="0.48.4 r9939"
   sodipodi:docname="burgen_sketch.svg">
  <defs
     id="defs4" />
  <sodipodi:namedview
     id="base"
     pagecolor="#ffffff"
     bordercolor="#666666"
     borderopacity="1.0"
     inkscape:pageopacity="0.0"
     inkscape:pageshadow="2"
     inkscape:zoom="3.959798"
     inkscape:cx="49.614691"
     inkscape:cy="31.633426"
     inkscape:document-units="px"
     inkscape:current-layer="layer1"
     showgrid="true"
     width="128px"
     inkscape:window-width="1858"
     inkscape:window-height="999"
     inkscape:window-x="-8"
     inkscape:window-y="46"
     inkscape:window-maximized="1"
     inkscape:snap-grids="true">
    <inkscape:grid
       type="xygrid"
       id="grid2991"
       empspacing="5"
       visible="true"
       enabled="true"
       snapvisiblegridlinesonly="true" />
  </sodipodi:namedview>
  <metadata
     id="metadata7">
    <rdf:RDF>
      <cc:Work
         rdf:about="">
        <dc:format>image/svg+xml</dc:format>
        <dc:type
           rdf:resource="http://purl.org/dc/dcmitype/StillImage" />
        <dc:title></dc:title>
      </cc:Work>
    </rdf:RDF>
  </metadata>
  <g
     inkscape:label="Ebene 1"
     inkscape:groupmode="layer"
     id="layer1"
     transform="translate(0,-950.3622)">
    <path
       style="fill:#000000;fill-opacity:1;stroke:none"
       d="m 0,0 0,102 39,0 0,-33 24,0 0,33 39,0 0,-102 -6,0 0,12 -6,0 0,-12 -6,0 0,12 -6,0 0,-12 -6,0 0,36 0,12 -6,0 0,-12 -6,0 0,12 -6,0 0,-12 -6,0 0,12 -6,0 0,-12 -6,0 0,12 -6,0 0,-12 0,-36 -6,0 0,12 -6,0 0,-12 -6,0 0,12 -6,0 0,-12 z"
       transform="translate(0,950.3622)"
       id="rect3051"
       inkscape:connector-curvature="0"
       sodipodi:nodetypes="ccccccccccccccccccccccccccccccccccccccccccc" />
    <rect
       style="fill:#ffff00;fill-opacity:1;stroke:none"
       id="rect3821"
       width="6"
       height="12"
       x="-60"
       y="980.36218" />
    <g
       id="g3827" />
    <g
       id="g3831"
       transform="translate(72,1.7382813e-5)">
      <g
         id="g3839" />
    </g>
  </g>
</svg>
