<?xml version="1.0" encoding="UTF-8" standalone="no"?>
<!-- Created with Inkscape (http://www.inkscape.org/) -->

<svg
   xmlns:a="http://ns.adobe.com/AdobeSVGViewerExtensions/3.0/"
   xmlns:dc="http://purl.org/dc/elements/1.1/"
   xmlns:cc="http://creativecommons.org/ns#"
   xmlns:rdf="http://www.w3.org/1999/02/22-rdf-syntax-ns#"
   xmlns:svg="http://www.w3.org/2000/svg"
   xmlns="http://www.w3.org/2000/svg"
   xmlns:sodipodi="http://sodipodi.sourceforge.net/DTD/sodipodi-0.dtd"
   xmlns:inkscape="http://www.inkscape.org/namespaces/inkscape"
   id="svg2"
   version="1.1"
   inkscape:version="0.48.4 r9939"
   width="40"
   height="40"
   sodipodi:docname="nearest_marker-icon.svg"
   inkscape:export-filename="/home/donk23/Schreibtisch/BurSchl_OOE/graphics/nearest_marker.png"
   inkscape:export-xdpi="180"
   inkscape:export-ydpi="180">
  <metadata
     id="metadata8">
    <rdf:RDF>
      <cc:Work
         rdf:about="">
        <dc:format>image/svg+xml</dc:format>
        <dc:type
           rdf:resource="http://purl.org/dc/dcmitype/StillImage" />
        <dc:title />
      </cc:Work>
    </rdf:RDF>
  </metadata>
  <defs
     id="defs6">
    <inkscape:perspective
       sodipodi:type="inkscape:persp3d"
       inkscape:vp_x="0 : 30 : 1"
       inkscape:vp_y="0 : 1000 : 0"
       inkscape:vp_z="40 : 30 : 1"
       inkscape:persp3d-origin="20 : 20 : 1"
       id="perspective2982" />
    <linearGradient
       id="SVGID_2_"
       gradientUnits="userSpaceOnUse"
       x1="108.6689"
       y1="271.94629"
       x2="108.6689"
       y2="306.69241"
       gradientTransform="translate(-99.418441,-260.80735)">
      <stop
         offset="0"
         style="stop-color:#429AB7"
         id="stop115" />
      <stop
         offset="1"
         style="stop-color:#426FB7"
         id="stop117" />
      <a:midPointStop
         offset="0"
         style="stop-color:#429AB7" />
      <a:midPointStop
         offset="0.5"
         style="stop-color:#429AB7" />
      <a:midPointStop
         offset="1"
         style="stop-color:#426FB7" />
    </linearGradient>
  </defs>
  <sodipodi:namedview
     pagecolor="#ffffff"
     bordercolor="#666666"
     borderopacity="1"
     objecttolerance="10"
     gridtolerance="10"
     guidetolerance="10"
     inkscape:pageopacity="0"
     inkscape:pageshadow="2"
     inkscape:window-width="1858"
     inkscape:window-height="999"
     id="namedview4"
     showgrid="true"
     inkscape:zoom="8.140351"
     inkscape:cx="12.181884"
     inkscape:cy="34.814913"
     inkscape:window-x="-8"
     inkscape:window-y="46"
     inkscape:window-maximized="1"
     inkscape:current-layer="g3821">
    <inkscape:grid
       type="xygrid"
       id="grid3774"
       empspacing="5"
       visible="true"
       enabled="true"
       snapvisiblegridlinesonly="true" />
  </sodipodi:namedview>
  <g
     transform="translate(-99.418441,-280.80735)"
     id="g112">
    <linearGradient
       id="linearGradient3177"
       gradientUnits="userSpaceOnUse"
       x1="108.6689"
       y1="271.94629"
       x2="108.6689"
       y2="306.69241">
      <stop
         offset="0"
         style="stop-color:#429AB7"
         id="stop3179" />
      <stop
         offset="1"
         style="stop-color:#426FB7"
         id="stop3181" />
      <a:midPointStop
         offset="0"
         style="stop-color:#429AB7" />
      <a:midPointStop
         offset="0.5"
         style="stop-color:#429AB7" />
      <a:midPointStop
         offset="1"
         style="stop-color:#426FB7" />
    </linearGradient>
  </g>
  <g
     transform="matrix(1.6686753,0,0,1.6117891,-161.33494,-311.50357)"
     id="g35">
    <g
       id="g3821"
       transform="matrix(1.0555555,0,0,1.0357143,-6.0372193,-7.1239268)">
      <path
         style="fill:#fbfcff;fill-opacity:1"
         id="path3807"
         d="m 117.75379,205.46034 c 0,1.73886 -0.40609,3.34252 -1.21827,4.81099 -0.81218,1.46847 -1.91414,2.63118 -3.30588,3.48813 -1.39175,0.85695 -2.91163,1.28543 -4.55964,1.28543 -1.64801,0 -3.16789,-0.42848 -4.55963,-1.28543 -1.39175,-0.85695 -2.49371,-2.01966 -3.30589,-3.48813 -0.81218,-1.46847 -1.21827,-3.07213 -1.21827,-4.81099 0,-1.73887 0.40609,-3.34253 1.21827,-4.811 0.81218,-1.46847 1.91414,-2.63118 3.30589,-3.48813 1.39174,-0.85695 2.91162,-1.28543 4.55963,-1.28543 1.64801,0 3.16789,0.42848 4.55964,1.28543 1.39174,0.85695 2.4937,2.01966 3.30588,3.48813 0.81218,1.46847 1.21827,3.07213 1.21827,4.811 z"
         inkscape:connector-curvature="0"
         sodipodi:nodetypes="sssssssssssss" />
      <path
         inkscape:connector-curvature="0"
         d="m 109.20226,210.48973 5.36984,-5.66587 q 0.22473,-0.23712 0.22473,-0.56159 0,-0.32448 -0.22473,-0.5616 l -1.20644,-1.27295 q -0.22473,-0.23711 -0.53225,-0.23711 -0.30753,0 -0.53226,0.23711 l -3.63115,3.83133 -3.63115,-3.83133 q -0.22473,-0.23711 -0.53225,-0.23711 -0.30752,0 -0.53225,0.23711 l -1.20644,1.27295 q -0.22473,0.23712 -0.22473,0.5616 0,0.32447 0.22473,0.56159 l 5.36984,5.66587 q 0.22473,0.23712 0.53225,0.23712 0.30753,0 0.53226,-0.23712 z m 8.55153,-5.02939 q 0,2.60829 -1.21827,4.81099 -1.21827,2.2027 -3.30588,3.48813 -2.08762,1.28543 -4.55964,1.28543 -2.47202,0 -4.55963,-1.28543 -2.08762,-1.28543 -3.30589,-3.48813 -1.21827,-2.2027 -1.21827,-4.81099 0,-2.6083 1.21827,-4.811 1.21827,-2.2027 3.30589,-3.48813 2.08761,-1.28543 4.55963,-1.28543 2.47202,0 4.55964,1.28543 2.08761,1.28543 3.30588,3.48813 1.21827,2.2027 1.21827,4.811 z"
         id="path4-1"
         style="fill:#1fffb8;fill-opacity:1" />
    </g>
  </g>
</svg>
