<?xml version="1.0" encoding="UTF-8" standalone="no"?>
<!-- Created with Inkscape (http://www.inkscape.org/) -->

<svg
   xmlns:a="http://ns.adobe.com/AdobeSVGViewerExtensions/3.0/"
   xmlns:dc="http://purl.org/dc/elements/1.1/"
   xmlns:cc="http://creativecommons.org/ns#"
   xmlns:rdf="http://www.w3.org/1999/02/22-rdf-syntax-ns#"
   xmlns:svg="http://www.w3.org/2000/svg"
   xmlns="http://www.w3.org/2000/svg"
   xmlns:sodipodi="http://sodipodi.sourceforge.net/DTD/sodipodi-0.dtd"
   xmlns:inkscape="http://www.inkscape.org/namespaces/inkscape"
   id="svg2"
   version="1.1"
   inkscape:version="0.48.4 r9939"
   width="40"
   height="40"
   sodipodi:docname="schloss_marker-icon.svg"
   inkscape:export-filename="/mnt/opData/WDir/GitHub/WebBeispiele_Shed01/BurSchl_OOE/graphics/schloss_marker.png"
   inkscape:export-xdpi="180"
   inkscape:export-ydpi="180">
  <metadata
     id="metadata8">
    <rdf:RDF>
      <cc:Work
         rdf:about="">
        <dc:format>image/svg+xml</dc:format>
        <dc:type
           rdf:resource="http://purl.org/dc/dcmitype/StillImage" />
        <dc:title></dc:title>
      </cc:Work>
    </rdf:RDF>
  </metadata>
  <defs
     id="defs6">
    <inkscape:perspective
       sodipodi:type="inkscape:persp3d"
       inkscape:vp_x="0 : 30 : 1"
       inkscape:vp_y="0 : 1000 : 0"
       inkscape:vp_z="40 : 30 : 1"
       inkscape:persp3d-origin="20 : 20 : 1"
       id="perspective2982" />
    <linearGradient
       id="SVGID_2_"
       gradientUnits="userSpaceOnUse"
       x1="108.6689"
       y1="271.94629"
       x2="108.6689"
       y2="306.69241"
       gradientTransform="translate(-99.418441,-260.80735)">
      <stop
         offset="0"
         style="stop-color:#429AB7"
         id="stop115" />
      <stop
         offset="1"
         style="stop-color:#426FB7"
         id="stop117" />
      <a:midPointStop
         offset="0"
         style="stop-color:#429AB7" />
      <a:midPointStop
         offset="0.5"
         style="stop-color:#429AB7" />
      <a:midPointStop
         offset="1"
         style="stop-color:#426FB7" />
    </linearGradient>
  </defs>
  <sodipodi:namedview
     pagecolor="#ffffff"
     bordercolor="#666666"
     borderopacity="1"
     objecttolerance="10"
     gridtolerance="10"
     guidetolerance="10"
     inkscape:pageopacity="0"
     inkscape:pageshadow="2"
     inkscape:window-width="1858"
     inkscape:window-height="999"
     id="namedview4"
     showgrid="true"
     inkscape:zoom="8.140351"
     inkscape:cx="-1.0525503"
     inkscape:cy="29.90112"
     inkscape:window-x="-8"
     inkscape:window-y="46"
     inkscape:window-maximized="1"
     inkscape:current-layer="g3821">
    <inkscape:grid
       type="xygrid"
       id="grid3774"
       empspacing="5"
       visible="true"
       enabled="true"
       snapvisiblegridlinesonly="true" />
  </sodipodi:namedview>
  <g
     transform="translate(-99.418441,-280.80735)"
     id="g112">
    <linearGradient
       id="linearGradient3177"
       gradientUnits="userSpaceOnUse"
       x1="108.6689"
       y1="271.94629"
       x2="108.6689"
       y2="306.69241">
      <stop
         offset="0"
         style="stop-color:#429AB7"
         id="stop3179" />
      <stop
         offset="1"
         style="stop-color:#426FB7"
         id="stop3181" />
      <a:midPointStop
         offset="0"
         style="stop-color:#429AB7" />
      <a:midPointStop
         offset="0.5"
         style="stop-color:#429AB7" />
      <a:midPointStop
         offset="1"
         style="stop-color:#426FB7" />
    </linearGradient>
  </g>
  <g
     transform="matrix(1.6686753,0,0,1.6117891,-161.33494,-311.50357)"
     id="g35">
    <g
       id="g3821"
       transform="matrix(1.0555555,0,0,1.0357143,-6.0372193,-7.1239268)">
      <path
         inkscape:connector-curvature="0"
         d="m 117.75379,201.56662 c 0,1.10525 -0.19515,2.01277 -0.58548,2.72256 l -6.458,11.77243 c -0.18925,0.33462 -0.47016,0.59826 -0.84274,0.79091 -0.37257,0.19266 -0.77176,0.28899 -1.19756,0.28899 -0.42581,0 -0.825,-0.0963 -1.19757,-0.28899 -0.37258,-0.19265 -0.64757,-0.45629 -0.82498,-0.79091 l -6.47576,-11.77243 c -0.390331,-0.70979 -0.58549,-1.61731 -0.58549,-2.72256 0,-2.14966 0.8871,-3.98498 2.66128,-5.50597 1.77417,-1.52099 3.91501,-2.28148 6.42252,-2.28148 2.50751,0 4.64834,0.76049 6.42251,2.28148 1.77418,1.52099 2.66127,3.35631 2.66127,5.50597 z"
         id="path4"
         sodipodi:nodetypes="scccscccsssss"
         style="fill:#699dff;fill-opacity:1;stroke:none" />
      <path
         inkscape:connector-curvature="0"
         style="fill:#eeeeec;fill-opacity:1;stroke:none"
         d="m 108.58359,196.71271 0,1.64553 -1.20951,1.44186 0,2.05828 -3.23981,0 0,3.60196 2.98062,0 1.03673,0 0,-1.02914 c 0,-0.28417 0.23208,-0.51455 0.51837,-0.51455 0.28628,0 0.51837,0.23038 0.51837,0.51455 l 0,1.02914 1.03673,0 2.98061,0 0,-3.60196 -3.23979,0 0,-2.05828 -1.20952,-1.44186 0,-0.6164 0.69115,0 0,0.51456 0.77755,0 0,0.51457 0.77755,0 0,-1.02913 -0.77755,0 0,-0.51457 -0.77755,0 0,-0.51456 -0.69115,0 -0.0864,0 -0.0864,0 z m -0.69115,3.34468 0.51836,0 0,1.02913 -0.51836,0 0,-1.02913 z m 1.03673,0 0.51837,0 0,1.02913 -0.51837,0 0,-1.02913 z m -5.57246,0.25728 -0.64795,1.02914 0,4.11653 1.29592,0 0,-4.11653 -0.64797,-1.02914 z m 10.62656,0 -0.64797,1.02914 0,4.11653 1.29593,0 0,-4.11653 -0.64796,-1.02914 z m -8.98505,2.14403 1.03673,0 0,0.85762 -1.03673,0 0,-0.85762 z m 1.81429,0 1.03674,0 0,0.85762 -1.03674,0 0,-0.85762 z m 2.67823,0 1.03673,0 0,0.85762 -1.03673,0 0,-0.85762 z m 1.81429,0 1.03674,0 0,0.85762 -1.03674,0 0,-0.85762 z"
         id="rect3007-3" />
    </g>
  </g>
</svg>
